<svg xmlns="http://www.w3.org/2000/svg" viewBox="0 0 618 618"><defs><style>.cls-1{fill:#fff;}.cls-2{fill:#4d4d4d;}</style></defs><title>movie_reel</title><g id="Layer_2" data-name="Layer 2"><g id="Layer_3" data-name="Layer 3"><circle class="cls-1" cx="309" cy="309" r="309"/><path class="cls-2" d="M559,309C559,171.79,448.46,60.42,311.58,59q-1.29,0-2.58,0t-2.58,0C203.19,60.08,115,123.68,77.81,213.74a99.23,99.23,0,0,0-8.67,24.63A249.88,249.88,0,0,0,59,309c0,138.07,111.93,250,250,250a248.87,248.87,0,0,0,139.72-42.66,100,100,0,0,0,22.39-17A249.41,249.41,0,0,0,559,309ZM428.22,481.93a60.25,60.25,0,1,1,15.18-11.57Q436,476.53,428.22,481.93ZM108.13,247.41q2.49-8.15,5.65-16.06A60,60,0,1,1,107,259,60.65,60.65,0,0,1,108.13,247.41Zm101.32-79A99.63,99.63,0,0,0,167,159c-1.7,0-3.4,0-5.08.13a210.26,210.26,0,0,1,54.88-38.91A99.75,99.75,0,0,0,209,159C209,162.18,209.16,165.33,209.45,168.44ZM145.84,356.75a99.84,99.84,0,0,0-25.52,44.65,207.8,207.8,0,0,1-19.89-67.8A99.79,99.79,0,0,0,145.84,356.75ZM217,487a60,60,0,1,1,60-60A60.07,60.07,0,0,1,217,487Zm32-328a60,60,0,1,1,60,60A60.07,60.07,0,0,1,249,159ZM511,262a60,60,0,1,1-60-60A60.07,60.07,0,0,1,511,262Zm-38.86,97.75a99.69,99.69,0,0,0,45-22.77,207.92,207.92,0,0,1-20.46,66.44A99.82,99.82,0,0,0,472.14,359.75ZM459.28,162.34c-2.73-.22-5.49-.34-8.28-.34a99.62,99.62,0,0,0-42.79,9.6A100.77,100.77,0,0,0,409,159a99.75,99.75,0,0,0-7.8-38.78,210.36,210.36,0,0,1,56.29,40.29C458.1,161.11,458.69,161.73,459.28,162.34ZM265.45,514.49a100.37,100.37,0,0,0,42.61-46.11,100.43,100.43,0,0,0,41.18,46.78,212.64,212.64,0,0,1-83.79-.67Z"/></g></g></svg>